<svg xmlns="http://www.w3.org/2000/svg" viewBox="0 0 64 64" role="img" aria-label="Inventando Solucoes">
  <defs>
    <linearGradient id="g" x1="10" y1="8" x2="54" y2="58" gradientUnits="userSpaceOnUse">
      <stop offset="0" stop-color="#2f9bff"/>
      <stop offset="0.58" stop-color="#186aa5"/>
      <stop offset="1" stop-color="#e5752a"/>
    </linearGradient>
  </defs>
  <rect width="64" height="64" rx="14" fill="#0b121b"/>
  <rect x="10" y="10" width="44" height="44" rx="10" fill="url(#g)"/>
  <path d="M19 45V19h6v26h-6Zm11.2-5.6 4.1-4.1c2.6 2.8 5.4 4.1 8.2 4.1 2.5 0 4-1 4-2.8 0-1.6-1-2.3-5.7-3.5-5.8-1.5-9.4-3.3-9.4-8.3 0-4.8 3.9-8 9.3-8 4.1 0 7.5 1.2 10.2 3.7l-3.6 4.4c-2.3-1.9-4.7-2.9-6.8-2.9-2.2 0-3.5 1-3.5 2.4 0 1.8 1.2 2.4 6.1 3.7 5.8 1.5 8.9 3.7 8.9 8.2 0 5.2-4 8.3-9.8 8.3-4.5 0-8.8-1.5-12-5.2Z" fill="#fff"/>
  <path d="M14 49h36" fill="none" stroke="#fff" stroke-opacity=".68" stroke-width="2.5" stroke-linecap="round"/>
</svg>
