<svg xmlns="http://www.w3.org/2000/svg" viewBox="0 0 96 96" role="img" aria-labelledby="title desc">
  <title id="title">Inventando Solucoes logo</title>
  <desc id="desc">Technical logo with a geometric monogram for design, CAD and automation services.</desc>
  <defs>
    <linearGradient id="markGradient" x1="17" y1="13" x2="81" y2="84" gradientUnits="userSpaceOnUse">
      <stop offset="0" stop-color="#2f9bff"/>
      <stop offset="0.58" stop-color="#186aa5"/>
      <stop offset="1" stop-color="#e5752a"/>
    </linearGradient>
    <filter id="softShadow" x="-20%" y="-20%" width="140%" height="140%" color-interpolation-filters="sRGB">
      <feDropShadow dx="0" dy="8" stdDeviation="8" flood-color="#03070c" flood-opacity="0.28"/>
    </filter>
  </defs>
  <rect width="96" height="96" rx="20" fill="#0b121b"/>
  <path d="M18 27.5C18 22.3 22.3 18 27.5 18h41C76.6 18 83 24.5 83 32.6v30.8C83 71.5 76.6 78 68.5 78h-41C22.3 78 18 73.7 18 68.5v-41Z" fill="url(#markGradient)" filter="url(#softShadow)"/>
  <path d="M29 67V29h8v38h-8Zm14.2-7.8 5.5-5.6c3.5 4 7.8 6.2 12.2 6.2 4.1 0 6.4-1.7 6.4-4.4 0-2.5-1.5-3.8-8.5-5.6-8.4-2.1-13.8-4.7-13.8-12.4 0-7.2 5.8-12 14-12 6 0 11.1 1.9 15.3 5.6l-4.8 6c-3.7-3.1-7.3-4.7-10.6-4.7-3.8 0-5.8 1.8-5.8 4 0 2.9 1.9 3.9 9.1 5.8 8.4 2.2 13.2 5.4 13.2 12.2 0 7.9-6 12.4-14.7 12.4-6.3 0-12.7-2.2-17.5-6.7Z" fill="#fff"/>
  <path d="M21 71h54" fill="none" stroke="#f7fbff" stroke-opacity="0.72" stroke-width="3" stroke-linecap="round"/>
  <path d="M72 20v13h13" fill="none" stroke="#f7fbff" stroke-opacity="0.5" stroke-width="3" stroke-linecap="round" stroke-linejoin="round"/>
</svg>
